<svg xmlns="http://www.w3.org/2000/svg" xmlns:xlink="http://www.w3.org/1999/xlink" viewBox="0 0 26.998 19.004">
  <defs>
    <style>
      .cls-1 {
        fill: url(#linear-gradient);
      }
    </style>
    <linearGradient id="linear-gradient" x1="1" y1="1" x2="0" gradientUnits="objectBoundingBox">
      <stop offset="0" stop-color="#ffa462"/>
      <stop offset="1" stop-color="#ffb146"/>
    </linearGradient>
  </defs>
  <path id="Union_9" data-name="Union 9" class="cls-1" d="M-3031.5,16992a1.5,1.5,0,0,1-1.5-1.5,1.5,1.5,0,0,1,1.5-1.5h24a1.5,1.5,0,0,1,1.5,1.5,1.5,1.5,0,0,1-1.5,1.5Zm0-8a1.5,1.5,0,0,1-1.5-1.5,1.5,1.5,0,0,1,1.5-1.5h24a1.5,1.5,0,0,1,1.5,1.5,1.5,1.5,0,0,1-1.5,1.5Zm0-8a1.5,1.5,0,0,1-1.5-1.5,1.5,1.5,0,0,1,1.5-1.5h24a1.5,1.5,0,0,1,1.5,1.5,1.5,1.5,0,0,1-1.5,1.5Z" transform="translate(3033 -16972.998)"/>
</svg>
